<svg width="125" height="202" viewBox="0 0 125 202" fill="none" xmlns="http://www.w3.org/2000/svg">
<mask id="mask0_4215_5319" style="mask-type:alpha" maskUnits="userSpaceOnUse" x="0" y="0" width="125" height="202">
<rect width="125" height="202" fill="#14142B"/>
</mask>
<g mask="url(#mask0_4215_5319)">
<path d="M118.604 64.8722C118.811 65.4251 118.949 66.0471 118.88 66.8073C120.947 67.7748 121.153 69.4334 120.671 71.1612C120.12 73.2345 118.88 74.6858 115.642 73.9256C115.504 75.5151 116.538 77.0355 118.122 77.4502C119.431 77.7957 120.809 77.2429 121.567 76.2062C121.567 75.9989 121.635 75.7224 121.635 75.5151C122.118 73.7183 123.978 72.6125 125.769 73.0963C127.56 73.58 128.662 75.446 128.18 77.2429C128.042 77.7957 127.767 78.2795 127.422 78.6251C127.284 79.9381 127.904 81.1821 129.144 81.8732C130.04 82.357 131.004 82.4261 131.9 82.0805C129.489 80.8366 129.42 79.1088 130.109 77.2429C130.453 76.2753 131.004 75.446 131.762 74.9622C130.178 69.4334 125.355 64.9413 118.604 64.8722ZM129.627 63.9047C127.698 60.4492 124.529 57.823 119.5 55.2659C119.5 56.7172 119.018 57.6848 118.191 58.3068C119.569 58.5832 120.671 59.7581 120.878 61.2094C121.222 61.2094 121.36 61.4858 121.36 61.9005C125.424 62.5916 128.8 64.5958 131.211 67.3602C130.798 66.1853 130.315 65.0104 129.627 63.9047ZM64.5954 61.002C64.4577 61.624 64.3888 62.246 64.3199 62.868C65.0777 63.1445 65.6977 63.6973 66.111 64.734C68.3843 64.5958 69.3488 65.9088 69.7621 67.7057C70.3132 69.779 69.8999 71.645 66.6621 72.5434C67.2821 73.9947 68.9354 74.824 70.5199 74.4094C71.9665 74.0638 72.9999 72.7507 72.9999 71.2994C72.7243 70.8156 72.5177 70.1937 72.5177 69.5717C72.5177 67.7057 74.0332 66.1853 75.8932 66.1853C77.7532 66.1853 79.2688 67.7057 79.2688 69.5717C79.2688 69.9172 79.1999 70.2628 79.131 70.5392C79.5443 71.9214 80.7843 72.8889 82.2999 72.8889C83.9532 72.8889 85.331 71.7141 85.5377 70.1245C82.231 70.1245 81.3354 68.3277 81.3354 66.1853C81.3354 64.3884 81.9554 62.868 84.1599 62.3842C84.5043 60.5183 85.0554 59.7581 86.5021 59.4816C85.4688 58.9979 84.7799 57.9612 84.7799 56.7863C82.9888 55.7497 81.1977 55.5424 79.1999 55.5424C73.6888 55.6115 68.4532 57.6848 64.5954 61.002ZM66.1799 55.8879C70.3132 53.6073 74.6532 52.3633 79.3377 52.3633C81.4732 52.3633 83.471 52.6398 85.3999 53.1235V52.4324C85.0554 51.9487 84.9177 51.3958 84.9177 50.7738C84.9177 50.1518 85.1243 49.5989 85.3999 49.1152V46.4199C85.0554 45.9361 84.9177 45.3832 84.9177 44.7612C76.2377 43.9319 69.4177 48.8387 66.1799 55.8879ZM50.4732 87.3329C49.5088 87.7476 48.4754 87.3329 47.9932 86.3654C47.7177 85.8125 47.7865 85.2596 47.9932 84.7067C46.0643 85.3287 43.9977 84.9141 42.4821 83.6701C40.7599 84.8449 38.9688 84.2921 37.591 83.2554C36.1443 82.1497 34.9732 79.5235 36.6954 78.0722C35.3865 76.3444 35.731 74.0638 37.3154 73.0272C37.0399 72.5434 36.8332 71.9214 36.8332 71.2994C36.8332 69.6408 38.0043 68.3277 39.5199 67.9821C38.6932 67.4984 38.211 66.5308 38.211 65.4251C38.211 63.6973 39.5199 62.246 41.2421 62.0387C40.8977 61.4858 40.691 60.8638 40.691 60.1727C40.691 58.3068 42.2065 56.7863 44.0665 56.7863C44.3421 56.7863 44.6865 56.8555 44.9621 56.9246C44.7554 56.5099 44.6865 56.0261 44.6865 55.5424C44.6865 53.6764 46.2021 52.156 48.0621 52.156C48.6132 52.156 49.1643 52.2942 49.5777 52.5015C49.5088 50.0827 51.0243 48.5623 52.8843 48.5623C53.5732 48.5623 54.2621 48.7696 54.8132 49.1843C55.1577 47.6638 56.4665 46.489 58.1199 46.489C59.291 46.489 60.3243 47.111 60.9443 48.0785C61.5643 47.3874 62.4599 46.9727 63.4243 46.9727C63.6999 46.9727 63.9065 46.9727 64.1821 47.0419C64.0443 46.6963 63.9754 46.2816 63.9754 45.7979C63.9754 43.9319 65.491 42.4115 67.351 42.4115C68.0399 42.4115 68.591 42.6188 69.1421 42.8953C69.0732 40.4764 70.5888 38.956 72.4488 38.956C73.2065 38.956 73.8954 39.2324 74.4465 39.6471C74.791 38.1267 76.0999 37.0209 77.7532 37.0209C78.7177 37.0209 79.5443 37.3665 80.1643 37.9885C80.7154 36.8136 81.8865 36.0534 83.1954 36.0534C83.6088 36.0534 83.9532 36.1225 84.2977 36.2607C84.9177 35.5696 86.2954 34.8094 87.1221 34.4639V31.9068H84.5732V29.2806H87.1221V27H89.8777V29.2806H92.4265V31.9068L89.8777 31.9068V34.4639C91.3243 35.0167 92.0821 35.5005 92.7021 36.1916C93.0465 36.0534 93.391 35.9843 93.8043 35.9843C95.1821 35.9843 96.2843 36.8136 96.8354 37.9194C97.4554 37.2974 98.2821 36.9518 99.2465 36.9518C100.831 36.9518 102.209 38.0576 102.553 39.578C103.104 39.1633 103.793 38.8869 104.551 38.8869C106.411 38.8869 107.927 40.4073 107.927 42.2733C108.409 42.4806 109.029 42.2733 109.649 42.2733C111.509 42.2733 113.024 43.7937 113.024 45.6597C113.024 46.0743 112.955 46.489 112.818 46.9036C113.093 46.8345 113.3 46.8345 113.575 46.8345C114.54 46.8345 115.435 47.2492 116.055 47.9403C116.675 46.9727 117.709 46.3508 118.88 46.3508C120.464 46.3508 121.842 47.5256 122.187 49.046C122.738 48.6314 123.427 48.4241 124.115 48.4241C125.975 48.4241 127.491 49.9445 127.491 51.8104C127.904 52.0869 128.455 51.9487 129.007 51.9487C130.867 51.9487 132.382 53.4691 132.382 55.335C132.382 55.8188 132.244 56.3026 132.107 56.7172C132.382 56.6481 132.658 56.579 133.002 56.579C134.862 56.579 136.378 58.0994 136.378 59.9654C136.378 60.6565 136.171 61.2785 135.827 61.8314C137.549 61.9696 138.858 63.4209 138.858 65.2177C138.858 66.3235 138.375 67.291 137.549 67.913C139.064 68.2586 140.235 69.5717 140.235 71.2303C140.235 71.8523 140.098 72.4052 139.753 72.9581C141.407 73.9947 141.751 76.2062 140.373 78.0031C142.095 79.4544 140.855 82.0805 139.478 83.1863C138.1 84.223 136.309 84.7758 134.587 83.601C133.002 84.7758 131.004 85.1905 129.075 84.6376C129.282 85.1214 129.351 85.7434 129.075 86.2962C128.593 87.2638 127.491 87.6784 126.527 87.1947C115.091 81.735 102.209 78.6942 88.5688 78.6942C74.8599 78.8324 62.0465 81.8732 50.4732 87.3329ZM45.3065 74.9622C45.9954 75.446 46.4777 76.2753 46.8221 77.1738C47.511 79.0397 47.4421 80.7675 45.031 82.0114C45.9265 82.357 46.891 82.2879 47.7865 81.8041C48.9577 81.113 49.6465 79.869 49.5088 78.5559C49.1643 78.1413 48.8888 77.6575 48.751 77.1738C48.2688 75.3769 49.371 73.5109 51.1621 73.0272C52.9532 72.5434 54.8132 73.6491 55.2954 75.446C55.3643 75.6533 55.3643 75.9298 55.3643 76.1371C56.1221 77.1738 57.4999 77.7266 58.8777 77.3811C60.4621 76.9664 61.4954 75.446 61.3577 73.8565C58.1199 74.6858 56.8799 73.1654 56.3288 71.0921C55.8465 69.3643 56.0532 67.7057 58.1199 66.7382C58.051 65.978 58.1888 65.2869 58.4643 64.8031C51.5065 65.0104 46.891 69.5717 45.3065 74.9622ZM56.1221 61.2094C56.2599 59.7581 57.3621 58.5832 58.8088 58.3068C58.051 57.6848 57.4999 56.7172 57.4999 55.6115C52.3332 57.823 49.1643 60.5183 47.2354 64.112C46.4777 65.9088 46.3399 66.3235 46.0643 67.1528C48.4754 64.4575 51.7821 62.4534 55.8465 61.7623L56.1221 61.2094ZM92.0132 56.8555C92.0132 58.0994 91.3243 59.1361 90.2221 59.5507C91.6688 59.8272 92.2199 60.5874 92.5643 62.4534C94.7688 62.868 95.3888 64.3884 95.3888 66.2544C95.3888 68.3968 94.5621 70.1245 91.1865 70.1937C91.4621 71.7832 92.771 72.9581 94.4243 72.9581C95.9399 72.9581 97.1799 71.9905 97.5932 70.6083C97.5243 70.3319 97.4554 69.9863 97.4554 69.6408C97.4554 67.7748 98.971 66.2544 100.831 66.2544C102.691 66.2544 104.207 67.7748 104.207 69.6408C104.207 70.2628 104.069 70.8156 103.724 71.3685C103.724 72.8198 104.758 74.1329 106.204 74.4785C107.789 74.8931 109.442 74.0638 110.062 72.6125C106.824 71.7832 106.48 69.8481 106.962 67.7748C107.444 66.0471 108.34 64.6649 110.613 64.8031C111.095 63.8355 111.715 63.2136 112.404 62.9371C112.335 62.3151 112.267 61.6931 112.129 61.0712C108.271 57.6848 103.035 55.6115 97.3177 55.6115C95.3888 55.6115 93.5977 55.8188 91.7377 56.3026L92.0132 56.8555ZM110.82 55.957C107.651 48.8387 100.9 43.8628 92.0132 44.3466C92.0132 45.3141 91.8754 45.867 91.531 46.3508V49.046C91.8754 49.5298 92.0132 50.0827 92.0132 50.7047C92.0132 51.3267 91.8065 51.8795 91.531 52.3633V53.0544C93.4599 52.5706 95.4577 52.3633 97.5932 52.3633C102.484 52.4324 107.031 53.7455 110.82 55.957ZM57.5688 80.1455C56.3288 80.0764 55.0888 79.5926 54.1243 78.9015C53.7799 79.1779 53.3665 79.3853 52.9532 79.4544C52.2643 80.7675 51.7132 81.9423 50.8177 82.8408C52.9532 81.8732 55.2265 80.9748 57.5688 80.1455ZM112.887 73.3727C112.129 75.3078 110.407 76.6209 108.478 77.0355C110.682 77.5193 112.887 78.0722 115.022 78.6942C113.438 77.4502 112.611 75.446 112.887 73.3727ZM103.862 76.1371C102.622 75.3769 101.658 74.1329 101.175 72.8198C100.624 72.8198 100.349 72.7507 100.004 72.6816C99.1777 73.8565 97.9377 74.824 96.5599 75.2387C98.971 75.446 101.451 75.7224 103.862 76.1371ZM80.4399 75.2387C79.0621 74.7549 77.8221 73.8565 76.9954 72.6816C76.651 72.7507 76.3754 72.8198 76.031 72.8198C75.411 74.202 74.4465 75.3769 73.2065 76.1371C75.5488 75.7224 78.0288 75.446 80.4399 75.2387ZM64.1821 73.3727C64.3888 75.446 63.5621 77.3811 62.1154 78.6942C64.251 78.0722 66.4554 77.5193 68.6599 77.0355C66.5932 76.6209 64.9399 75.3078 64.1821 73.3727ZM85.1243 74.9622C86.2265 74.8931 87.3977 74.8931 88.5688 74.8931C89.7399 74.8931 90.8421 74.8931 92.0132 74.9622C90.2221 74.0638 88.9132 72.3361 88.5688 70.3319C88.2243 72.3361 86.9154 74.0638 85.1243 74.9622ZM119.5 80.1455C121.773 80.9748 124.047 81.8732 126.251 82.8408C125.424 81.9423 124.804 80.7675 124.598 79.5235C123.702 79.3162 123.289 79.1088 122.944 78.9015C121.98 79.6617 120.74 80.0764 119.5 80.1455ZM133.347 77.6575C132.451 79.247 133.071 81.1821 134.587 82.0805C136.171 82.979 138.1 82.357 138.995 80.8366C139.822 79.247 139.271 77.312 137.687 76.4135C136.171 75.5151 134.173 76.068 133.347 77.6575ZM110.958 67.9821C110.544 69.7099 111.578 71.5067 113.3 71.9214C115.022 72.3361 116.813 71.2994 117.227 69.5717C117.64 67.8439 116.607 66.0471 114.884 65.6324C113.162 65.1486 111.371 66.1853 110.958 67.9821ZM44.1354 77.312C43.2399 75.7224 41.311 75.1696 39.7265 75.9989C38.1421 76.8282 37.591 78.8324 38.4177 80.4219C39.3132 82.0114 41.2421 82.5643 42.8265 81.735C44.4799 80.9057 45.031 78.9015 44.1354 77.312ZM66.0421 67.9821C65.6288 66.2544 63.8377 65.2177 62.1154 65.6324C60.3932 66.0471 59.3599 67.8439 59.7732 69.5717C60.1865 71.2994 61.9777 72.3361 63.6999 71.9214C65.491 71.4376 66.5243 69.7099 66.0421 67.9821ZM91.7377 65.4942C91.7377 63.6973 90.291 62.246 88.4999 62.246C86.7088 62.246 85.2621 63.6973 85.2621 65.4942C85.2621 67.291 86.7088 68.7424 88.4999 68.7424C90.291 68.7424 91.7377 67.291 91.7377 65.4942ZM125.769 91.3413L126.389 93.8983L123.84 95.3496C124.253 95.6261 124.391 96.1098 124.184 96.5936C123.978 97.0774 123.427 97.2847 122.944 97.0774C112.473 92.1015 100.831 89.4062 88.4999 89.4062C76.1688 89.4062 64.5265 92.1706 54.0554 97.0774C53.5732 97.2847 53.091 97.0774 52.8154 96.5936C52.6088 96.179 52.8154 95.6261 53.1599 95.3496L50.611 93.8983L51.231 91.3413C50.8865 91.4104 50.4732 91.2722 50.2665 90.8575C50.0599 90.4428 50.1977 89.9591 50.611 89.7517C62.1843 84.2921 74.9288 81.3203 88.4999 81.3203C102.071 81.3203 114.815 84.3612 126.32 89.7517C126.733 89.9591 126.871 90.4428 126.664 90.8575C126.527 91.2031 126.113 91.4104 125.769 91.3413ZM88.4999 101.224C50.5421 101.224 19.5421 132.254 19.5421 170.403C19.5421 208.482 50.5421 239.582 88.4999 239.582C126.458 239.582 157.458 208.482 157.458 170.403C157.458 132.254 126.458 101.224 88.4999 101.224ZM88.4999 91.9633C131.555 91.9633 166.62 127.209 166.62 170.403C166.62 213.527 131.555 248.774 88.4999 248.774C45.4443 248.774 10.3799 213.527 10.3799 170.403C10.3799 127.209 45.4443 91.9633 88.4999 91.9633ZM153.944 169.988C153.944 186.022 148.227 200.604 138.72 212.007L131.211 204.474C139.271 194.661 144.507 184.916 144.507 169.366C144.507 152.987 135.964 134.328 122.255 124.86L113.507 133.844C118.191 137.368 121.911 141.031 125.011 146.007L117.571 152.434C114.884 147.597 111.302 144.072 106.755 140.962L88.4999 160.313L69.5554 140.755C59.911 147.458 54.331 157.341 54.0554 169.228C53.7799 185.054 63.9065 196.388 78.3043 201.226V168.813H88.2243H101.175V176.001H87.4665V184.156H100.969V192.311H87.4665V202.746C97.3177 203.23 108.064 197.218 114.402 190.099L121.498 197.287C113.024 207.308 100.487 212.56 87.5354 212.629V222.65H78.3732V211.523C58.6021 206.547 44.3421 188.924 44.6177 168.261C44.8243 154.162 52.2643 142.275 63.2177 134.051L54.331 124.79C40.1399 136.47 32.4932 150.845 31.8732 169.297C31.391 185.953 40.071 199.222 45.3754 204.681L38.7621 211.454C28.9799 200.051 23.1932 186.022 23.1932 169.919C23.1932 145.662 36.5577 124.238 56.3288 112.904L71.7599 129.075C77.0643 127.002 82.6443 125.896 88.7065 125.896C94.4932 125.965 99.591 127.002 104.964 129.075L105.722 128.315L120.74 112.765C140.511 124.168 153.944 145.523 153.944 169.988ZM97.7999 136.816C94.631 136.055 91.5999 135.364 88.2932 135.295C85.0554 135.157 81.8177 135.848 78.7177 136.539L87.6732 145.8L88.6377 146.491L97.7999 136.816ZM97.5932 154.508L135.482 193.831C133.347 197.356 130.729 200.88 127.56 204.681L137.067 214.149C130.798 220.991 123.151 226.589 114.54 230.459L98.6265 214.08C109.098 211.662 118.122 205.649 125.08 197.079L114.264 186.091C108.478 193.002 99.591 199.429 90.2221 200.051V194.937H103.724V181.391H90.2221V178.627H103.931V166.049H88.2932H75.6865V190.514L56.811 171.163C56.811 170.541 56.7421 169.85 56.811 169.228C57.0177 158.516 62.1154 149.739 69.3488 144.21L87.0532 162.594L88.5688 164.114L97.5932 154.508ZM43.3777 157.479L37.7288 151.674C40.8977 142.897 46.271 135.157 53.9865 128.453L59.0843 133.706C51.7132 139.787 45.9954 148.08 43.3777 157.479Z" fill="#EDEFF2"/>
</g>
</svg>
