<svg width="41" height="40" viewBox="0 0 41 40" fill="none" xmlns="http://www.w3.org/2000/svg">
<path d="M27.6939 8.67153C28.3341 7.97161 29.1211 6.51373 29.092 6.22352C29.063 5.9316 28.8582 5.17364 27.868 4.99952C26.8779 4.82539 23.8461 4.79466 21.1932 4.27058C18.5403 3.74649 16.3535 3.10462 15.2183 2.58053C14.0813 2.05474 13.5555 1.55967 13.0315 1.58699C12.5057 1.61772 11.1366 3.04487 11.1946 3.71576C11.2526 4.38666 11.6897 6.25254 12.4766 7.53459C13.2636 8.81663 15.8004 12.1114 18.0743 12.4323C20.3482 12.7533 21.777 12.6952 22.3301 12.4904C21.6883 15.2303 20.3772 17.5042 19.6773 18.1751C18.9774 18.846 18.8613 19.778 18.8903 20.2731L17.318 14.8223C17.2805 14.6942 17.1985 14.5833 17.0842 14.5116L16.9169 14.4057C16.7803 14.3204 16.6028 14.3392 16.4884 14.4535L16.1299 14.812L15.5136 14.1719C15.3224 13.9738 14.9878 14.0558 14.911 14.3204L14.7198 14.9827H14.7061C14.2043 15.0408 13.8645 15.5239 13.984 16.0138L14.2606 17.7346H14.1394C13.7638 17.7346 13.6051 18.0487 13.6221 18.4243L13.7621 21.2598C14.066 23.4005 15.7355 26.2463 15.925 27.3474C16.1145 28.4468 16.304 33.5306 16.304 33.5306L16.106 33.6245L14.8649 35.4716L16.9937 38.1774C16.9937 38.1774 22.7279 38.71 24.2643 38.1774C25.8007 37.6447 25.8605 37.3494 25.8605 37.3494V35.4716C25.8605 35.4716 24.3821 30.7873 23.8512 27.95C23.3203 25.1128 22.6101 20.5019 22.6101 20.5019L25.8622 15.8312C25.8622 15.8312 27.163 10.097 27.6939 9.44656C27.6939 9.44656 28.1617 8.95833 27.6939 8.66812V8.67153ZM24.7372 11.7051L23.5456 14.7711C23.5183 14.8428 23.4107 14.8172 23.4193 14.7403L23.6907 12.0004C23.7027 11.8792 23.788 11.7768 23.9058 11.7443L24.5989 11.5514C24.6894 11.5258 24.7713 11.6163 24.7372 11.7034V11.7051Z" fill="#3E31FA"/>
</svg>
