<svg width="40" height="40" viewBox="0 0 40 40" fill="none" xmlns="http://www.w3.org/2000/svg">
<path d="M22.0984 9.03827C21.9167 8.93673 21.6905 8.80847 21.4981 8.68733C23.4077 8.08345 26.2847 6.48555 26.3149 2.25298C25.0751 1.77023 23.422 1.57784 21.792 1.5333C21.792 1.52974 21.792 1.5244 21.792 1.52083C21.792 0.89735 20.9904 0.393219 19.9999 0.393219C19.0095 0.393219 18.2079 0.89735 18.2079 1.52083C18.2079 1.5244 18.2079 1.52974 18.2079 1.5333C16.5779 1.57962 14.923 1.77023 13.6849 2.25298C13.717 6.57462 16.7151 8.14757 18.6211 8.72296C18.443 8.83341 18.2417 8.94563 18.0796 9.03648C17.3118 9.46758 16.4407 9.95746 16.0328 10.67C15.3648 11.8404 15.363 14.3094 15.5679 17.6584C15.7442 20.546 17.3902 24.4739 18.2738 26.5849C18.4092 26.9109 18.5267 27.187 18.614 27.4043C19.0362 28.4589 19.1075 33.8048 19.0522 37.3533C18.3041 37.6045 17.791 38.1033 17.791 38.6805C17.791 39.5088 18.9044 39.6068 20.2012 39.6068C21.4981 39.6068 22.485 39.5088 22.485 38.6805C22.485 38.0784 21.9274 37.56 21.1258 37.3213C21.0723 33.7728 21.1436 28.4553 21.564 27.4025C21.6513 27.1852 21.7671 26.9073 21.9042 26.5831C22.7878 24.4722 24.4338 20.5442 24.6102 17.6566C24.815 14.3076 24.8132 11.8386 24.1452 10.6682C23.7373 9.95568 22.868 9.4658 22.0984 9.0347V9.03827ZM23.5431 17.5942C23.3774 20.3002 21.7778 24.1194 20.9173 26.1734C20.7784 26.5047 20.6608 26.788 20.5718 27.0089C20.2867 27.7214 20.1496 29.6649 20.089 31.7099C20.0267 29.6649 19.8913 27.7214 19.6063 27.0089C19.5172 26.788 19.3996 26.5047 19.2607 26.1734C18.4003 24.1212 16.8006 20.3019 16.6349 17.596C16.4764 14.9952 16.3909 12.202 16.9609 11.2044C17.221 10.7484 17.987 10.3173 18.6033 9.97171C19.1698 9.65462 19.6472 9.38385 19.9091 9.04539C19.934 9.04183 19.9643 9.03827 20.0017 9.03292C20.0908 9.04539 20.1478 9.05252 20.1638 9.05608L20.1941 9.00264C20.2066 9.00086 20.2208 8.99729 20.2333 8.99551C20.4845 9.35713 20.9833 9.63859 21.5765 9.97171C22.191 10.3173 22.957 10.7484 23.2189 11.2044C23.7889 12.202 23.7034 14.9952 23.5449 17.596L23.5431 17.5942Z" fill="#3E31FA"/>
</svg>
