<svg width="41" height="40" viewBox="0 0 41 40" fill="none" xmlns="http://www.w3.org/2000/svg">
<g clip-path="url(#clip0_7744_1078)">
<path d="M19.1026 22.8601C19.1974 18.6461 16.9249 14.7632 16.9249 14.7632L18.0379 14.4647C15.9145 13.5414 14.4285 11.4243 14.4285 8.96057C14.4285 5.64812 17.1145 2.9621 20.4285 2.9621C23.7425 2.9621 26.4286 5.64812 26.4286 8.96212C26.4286 11.0171 25.3949 12.8295 23.8203 13.9114H23.9804L24.6907 15.0476C19.813 23.0979 24.6907 30.4674 24.6907 30.4674L24.6083 30.5902C25.0964 30.6259 25.6047 30.6679 26.1332 30.7208V35.6918C26.1332 35.6918 21.2104 38.485 14.7238 36.0228V31.2881C14.7238 31.2881 15.2197 31.086 16.2829 30.8824C16.8145 30.085 19.0202 26.5643 19.1042 22.8601H19.1026Z" fill="#3E31FA"/>
</g>
<defs>
<clipPath id="clip0_7744_1078">
<rect width="12" height="34.0758" fill="white" transform="matrix(-1 0 0 1 26.4286 2.9621)"/>
</clipPath>
</defs>
</svg>
