<svg width="41" height="40" viewBox="0 0 41 40" fill="none" xmlns="http://www.w3.org/2000/svg">
<path d="M22.8313 32.6632V17.8125C22.9085 17.3955 22.9845 17.0132 23.0591 16.6653C23.4987 14.6179 23.9424 13.4309 24.2035 12.8427C24.5352 12.5347 24.827 12.1855 25.0668 11.7991H24.4859C25.0934 11.0051 25.4545 10.0147 25.4545 8.93919C25.4545 6.32886 23.3322 4.21378 20.7129 4.21378C18.0937 4.21378 15.9727 6.32886 15.9727 8.93786C15.9727 10.0133 16.3338 11.0038 16.9413 11.7978H16.3618C16.6016 12.1829 16.8933 12.5334 17.2251 12.8414C17.5302 13.5305 18.0857 15.0481 18.5973 17.8271V32.6619C16.8947 33.1106 15.7143 34.0839 15.7143 35.2138H25.7143C25.7143 34.0852 24.5339 33.1106 22.8313 32.6619V32.6632ZM22.8313 13.7549C23.0258 13.6673 23.2123 13.5677 23.3935 13.4562C23.2243 13.9315 23.0311 14.5476 22.8313 15.3296V13.7549ZM20.7143 14.213C20.8768 14.213 21.038 14.2023 21.1966 14.1877C21.046 14.7839 20.8808 15.5487 20.7143 16.5139C20.5491 15.5487 20.3825 14.7839 20.232 14.1877C20.3905 14.2023 20.5517 14.213 20.7143 14.213ZM18.5973 15.3296C18.3975 14.5476 18.2043 13.9315 18.0351 13.4562C18.2149 13.5664 18.4028 13.6659 18.5973 13.7549V15.3296ZM19.6311 32.4654C19.458 32.4866 19.2888 32.5132 19.1236 32.545V21.3761C19.3754 23.5151 19.5779 26.1135 19.6778 29.2549C19.6538 30.2666 19.6378 31.3368 19.6311 32.4654ZM19.1236 17.766V13.9607C19.2981 14.0178 19.4779 14.0656 19.6605 14.1041C19.8297 14.7454 20.0242 15.6177 20.2187 16.7742C20.2999 17.2614 20.3759 17.7633 20.4465 18.2758C20.2427 19.7868 20.0521 21.6496 19.9069 23.9293C19.6924 21.3429 19.4073 19.3168 19.1249 17.766H19.1236ZM21.1619 32.4109C21.014 32.403 20.8648 32.399 20.7143 32.399C20.5637 32.399 20.4145 32.403 20.2666 32.4109C20.2573 31.3195 20.236 30.2826 20.2054 29.3014C20.2946 25.6594 20.4891 22.7862 20.7143 20.5582C21.0047 23.4261 21.1539 26.4945 21.2219 29.3133C21.1912 30.2919 21.1699 31.3235 21.1606 32.4109H21.1619ZM22.305 32.545C22.1398 32.5132 21.9706 32.4866 21.7974 32.4654C21.7908 31.3434 21.7748 30.2799 21.7508 29.2748C21.852 26.0936 22.0585 23.4872 22.305 21.3801V32.545ZM22.305 17.766C22.0226 19.3181 21.7375 21.3442 21.523 23.9293C21.3777 21.6509 21.1872 19.7881 20.9834 18.2785C21.0593 17.7182 21.1366 17.2176 21.2099 16.7742C21.4044 15.6177 21.5989 14.7454 21.7681 14.1041C21.9506 14.0656 22.1305 14.0178 22.305 13.9607V17.766Z" fill="#3E31FA"/>
<path d="M15.4478 35.2138C16.8382 35.5702 18.6861 35.7862 20.7136 35.7862C22.7411 35.7862 24.5889 35.5688 25.9808 35.2138H15.4478Z" fill="#3E31FA"/>
</svg>
