<svg width="41" height="40" viewBox="0 0 41 40" fill="none" xmlns="http://www.w3.org/2000/svg">
<path d="M26.2996 24.2042C26.3129 24.1802 26.3196 24.1549 26.3196 24.1309C26.3196 23.7708 24.9056 23.4627 22.9023 23.336V18.2483C24.2884 17.5775 25.3871 16.3506 25.8354 14.7662C25.8434 14.7369 25.8514 14.7089 25.858 14.6796C26.7945 13.55 27.3571 12.099 27.3571 10.516C27.3571 6.91794 24.4467 4 20.8565 4C17.2663 4 14.3571 6.91794 14.3571 10.516C14.3571 11.2415 14.4755 11.939 14.6937 12.5898C14.4463 14.9876 15.8017 17.3108 18.0498 18.3123V23.3947C16.4589 23.5441 15.3947 23.8175 15.3947 24.1295C15.3947 24.1549 15.4014 24.1789 15.4147 24.2029C15.5729 24.8003 16.5879 29.0119 15.404 35.0931C15.3974 35.1091 15.3947 35.1265 15.3947 35.1438C15.3947 35.6173 17.8409 36 20.8565 36C23.872 36 26.3183 35.6159 26.3183 35.1438C26.3183 35.1265 26.3143 35.1105 26.309 35.0931C25.1251 29.0119 26.14 24.8003 26.2983 24.2029L26.2996 24.2042Z" fill="#3E31FA"/>
</svg>
