<svg width="41" height="40" viewBox="0 0 41 40" fill="none" xmlns="http://www.w3.org/2000/svg">
<path d="M24.6666 32.0781L24.7862 31.0265L22.1598 29.3918L24.974 28.2976V25.6861L22.3618 24.6666L25.4859 23.0519L25.3778 20.6592L20.1264 17.6794L22.6782 15.3441C23.7058 14.8557 24.5701 14.059 25.1631 13.0702L26.5714 11.7812L26.5495 9.51393V8.34229H25.8126C25.1399 5.83753 22.9251 4 20.2975 4C17.1348 4 14.5714 6.65955 14.5714 9.94095C14.5714 12.5311 16.1688 14.7329 18.3965 15.5456L17.1785 16.6225L17.1258 19.1553L21.8306 21.8255L18.4016 23.5977L18.3476 26.0811L20.6769 26.9898L18.6061 27.7945L18.5766 30.414L20.52 31.567C19.6981 31.6644 18.9007 31.8699 18.3528 32.1528L17.1772 35.5236C18.3348 35.8198 19.8717 36 21.5579 36C23.2441 36 24.7823 35.8198 25.9386 35.5236L24.8184 32.1528C24.7682 32.1274 24.7167 32.1021 24.6627 32.0781H24.6666Z" fill="#3E31FA"/>
</svg>
