<svg width="41" height="40" viewBox="0 0 41 40" fill="none" xmlns="http://www.w3.org/2000/svg">
<path d="M30.084 11.6503C29.6543 11.2917 25.5232 10.6471 25.4521 10.6235L25.1544 10.5862L24.2578 9.61859L23.7774 6.8476L22.2058 6.41114L21.255 5.08147C21.3498 4.97659 21.409 4.83956 21.409 4.689V4.11213C21.6018 4.01571 21.7372 3.81778 21.7372 3.58602C21.7372 3.26121 21.4733 2.99731 21.1485 2.99731H20.8761V2.36462C20.8761 2.03981 20.6122 1.77591 20.2874 1.77591C19.9626 1.77591 19.6987 2.03981 19.6987 2.36462V2.99731H19.4263C19.1015 2.99731 18.8376 3.26121 18.8376 3.58602C18.8376 3.81778 18.9713 4.01571 19.1658 4.11213V4.689C19.1658 4.84125 19.225 4.97828 19.3197 5.08147L18.369 6.41114L16.7974 6.8476L16.317 9.61859L15.4204 10.5862L15.1227 10.6235C15.0516 10.6471 10.9205 11.2917 10.4908 11.6503C10.0611 12.0089 10.3961 12.4623 10.682 12.4623C10.6109 12.821 10.9442 13.2506 11.6124 13.8715C12.2806 14.4923 14.424 17.2278 14.5965 19.8161C14.7488 22.0948 14.6202 24.1418 14.1449 24.925C13.7828 25.5222 13.5105 25.7506 13.5206 26.1667C13.5274 26.4577 14.0214 26.8586 14.4037 27.1936C14.786 27.5285 16.5048 29.0561 16.5048 29.0561C16.5048 29.0561 16.8144 29.342 16.5048 29.677C16.1952 30.0119 15.9211 31.0861 16.6435 31.6816C16.6435 32.1113 17.0072 32.5884 17.1747 32.8269C17.3422 33.0654 17.3895 34.1633 16.9598 34.4509C16.5302 34.7368 15.8856 35.4778 15.9567 35.9785C14.786 36.0986 13.8911 36.6704 13.7896 36.8616V37.6736C13.7896 37.6736 14.5475 38.2471 19.2521 38.2234C19.6462 38.2217 19.988 38.2132 20.2857 38.2031C20.5834 38.2149 20.9252 38.2217 21.3193 38.2234C26.0222 38.2471 26.7818 37.6736 26.7818 37.6736V36.8616C26.6803 36.6704 25.7854 36.0969 24.6147 35.9785C24.6858 35.4778 24.0413 34.7368 23.6116 34.4509C23.1819 34.165 23.2292 33.0654 23.3967 32.8269C23.5642 32.5884 23.9279 32.1113 23.9279 31.6816C24.6503 31.0845 24.3762 30.0102 24.0666 29.677C23.7571 29.342 24.0666 29.0561 24.0666 29.0561C24.0666 29.0561 25.7854 27.5285 26.1677 27.1936C26.55 26.8586 27.044 26.4577 27.0508 26.1667C27.0609 25.7506 26.7903 25.5222 26.4265 24.925C25.9512 24.1418 25.8226 22.0948 25.9749 19.8161C26.1474 17.2278 28.2908 14.4923 28.959 13.8715C29.6272 13.2506 29.9622 12.821 29.8894 12.4623C30.1753 12.4623 30.5103 12.0089 30.0806 11.6503H30.084Z" fill="#3E31FA"/>
</svg>
